# Blender v2.79 (sub 0) OBJ File: ''
# www.blender.org
v 100.000000 99.999992 0.000000
v 100.000000 -100.000000 0.000000
v -100.000015 -99.999985 0.000000
v -99.999962 100.000038 0.000000
v 100.000046 99.999947 20.000000
v 99.999931 -100.000061 20.000000
v -100.000038 -99.999962 20.000000
v -99.999992 100.000000 20.000000
vt -24.500000 -24.500000
vt 25.500000 -24.500000
vt 25.500000 25.500000
vt -24.500000 25.500000
vt -29.500002 25.500000
vt -29.500002 -24.500000
vt 25.500000 30.500002
vt -24.500000 30.500002
vt 30.500002 -24.500000
vt 30.500002 25.500000
vt -24.500000 -29.500002
vt 25.500000 -29.500002
vn 0.0000 0.0000 1.0000
vn -1.0000 0.0000 -0.0000
vn 0.0000 1.0000 0.0000
vn 1.0000 -0.0000 0.0000
vn -0.0000 -1.0000 -0.0000
s off
f 1/1/1 4/2/1 3/3/1 2/4/1
f 1/1/2 2/4/2 6/5/2 5/6/2
f 2/4/3 3/3/3 7/7/3 6/8/3
f 3/3/4 4/2/4 8/9/4 7/10/4
f 5/11/5 8/12/5 4/2/5 1/1/5
