# Blender v2.79 (sub 0) OBJ File: ''
# www.blender.org
v 0.368991 0.480630 0.069665
v 0.025882 0.484540 0.348888
v -0.364170 0.452950 -0.077676
v 0.225189 0.451643 -0.239637
v -0.084713 0.482739 -0.255441
v -0.112169 -0.480163 0.370717
v 0.037073 -0.469345 -0.351454
v 0.287585 -0.496988 0.147452
v -0.353903 -0.483389 0.131709
v -0.196729 -0.421859 -0.326061
v -0.408260 -0.122102 0.524613
v -0.457036 -0.295807 0.357852
v -0.114753 -0.364196 0.512877
v -0.326066 0.430565 0.290849
v 0.017162 0.351042 0.479117
v 0.306477 -0.246665 0.471016
v 0.287049 0.183196 0.453117
v 0.458801 0.348675 0.013966
v 0.430062 0.194546 -0.341325
v 0.431710 -0.200445 -0.256829
v 0.088468 -0.358270 -0.470617
v 0.444186 -0.099934 0.162996
v -0.049849 0.280086 -0.550172
v 0.313884 0.064021 -0.502958
v -0.474947 0.072175 -0.322869
v -0.308080 -0.081600 -0.498860
v -0.359458 0.346325 -0.326970
v -0.469942 -0.189836 -0.289204
v -0.485527 -0.328876 0.010953
v -0.508455 0.305382 0.195244
v -0.547291 -0.146862 0.352719
vt 0.951620 0.786647
vt 1.259199 0.883048
vt 0.718886 0.876232
vt 1.211890 0.804899
vt 0.211890 0.804899
vt 0.358158 0.727325
vt 0.259199 0.883048
vt 0.562381 0.614366
vt 0.666903 0.693265
vt 0.461762 0.660300
vt 0.406287 0.496519
vt 0.812627 0.209771
vt 1.209441 0.157228
vt 0.893248 0.342017
vt 0.186950 0.438171
vt 0.031465 0.364879
vt 0.209441 0.157228
vt 1.031465 0.364879
vt 0.367228 0.063123
vt 0.654433 0.570722
vt 0.785406 0.477583
vt 0.799954 0.809431
vt 0.876340 0.429106
vt 0.972595 0.552706
vt 1.075105 0.602075
vt 0.075105 0.602075
vt 0.269157 0.605598
vt 0.292656 0.484921
vt 0.263696 0.226449
vt 0.537103 0.356953
vt 0.509102 0.510272
vt 0.456262 0.273863
vt 0.562404 0.216208
vt 0.744815 0.407926
vt 0.781737 0.359848
vt 0.710874 0.217141
vn 0.5755 0.2467 0.7797
vn 0.5691 0.8129 0.1238
vn 0.0874 0.8869 0.4535
vn 0.9315 0.3630 0.0204
vn 0.3577 0.8305 -0.4269
vn -0.5384 0.8326 -0.1296
vn -0.4262 0.7748 0.4668
vn -0.0839 0.9427 -0.3228
vn -0.0439 0.4356 -0.8990
vn -0.4629 -0.8849 0.0508
vn 0.1236 -0.8921 -0.4345
vn -0.0563 -0.9040 0.4237
vn 0.8658 -0.3789 -0.3267
vn 0.5320 -0.8365 0.1315
vn -0.3934 -0.7629 -0.5130
vn -0.8774 0.4292 0.2143
vn -0.4635 -0.0485 0.8848
vn 0.0604 0.4581 0.8868
vn -0.0354 -0.4952 0.8680
vn 0.5829 -0.3069 0.7523
vn 0.9712 -0.1231 0.2038
vn 0.8179 0.3173 -0.4799
vn 0.5159 0.0618 -0.8544
vn 0.2161 -0.5416 -0.8123
vn -0.8835 0.1392 -0.4472
vn -0.6319 0.5720 -0.5229
vn -0.4490 -0.1545 -0.8800
vn -0.8465 -0.3448 -0.4055
vn -0.9429 -0.1256 0.3084
vn -0.6818 -0.6035 0.4134
vn -0.8597 -0.4842 -0.1627
s 1
f 17/1/1 1/2/2 2/3/3
f 18/4/4 1/2/2 17/1/1
f 18/5/4 4/6/5 1/7/2
f 3/8/6 14/9/7 5/10/8
f 4/6/5 5/10/8 1/7/2
f 5/10/8 4/6/5 23/11/9
f 9/12/10 7/13/11 6/14/12
f 20/15/13 8/16/14 7/17/11
f 6/14/12 7/13/11 8/18/14
f 7/13/11 9/12/10 10/19/15
f 14/9/7 30/20/16 11/21/17
f 11/21/17 15/22/18 14/9/7
f 15/22/18 13/23/19 17/1/1
f 17/1/1 13/23/19 16/24/20
f 17/1/1 16/24/20 22/25/21
f 13/23/19 8/18/14 16/24/20
f 8/18/14 22/25/21 16/24/20
f 18/5/4 22/26/21 19/27/22
f 24/28/23 19/27/22 20/15/13
f 19/27/22 24/28/23 4/6/5
f 8/16/14 20/15/13 22/26/21
f 24/28/23 20/15/13 21/29/24
f 23/11/9 24/28/23 21/29/24
f 25/30/25 27/31/26 26/32/27
f 10/19/15 28/33/28 26/32/27
f 10/19/15 26/32/27 21/29/24
f 28/33/28 30/20/16 25/30/25
f 30/20/16 3/8/6 25/30/25
f 31/34/29 9/12/10 12/35/30
f 12/35/30 11/21/17 31/34/29
f 5/10/8 2/3/3 1/7/2
f 14/9/7 2/3/3 5/10/8
f 27/31/26 5/10/8 23/11/9
f 3/8/6 5/10/8 27/31/26
f 13/23/19 12/35/30 6/14/12
f 12/35/30 9/12/10 6/14/12
f 6/14/12 8/18/14 13/23/19
f 28/33/28 10/19/15 9/12/10
f 7/17/11 10/19/15 21/29/24
f 12/35/30 13/23/19 11/21/17
f 2/3/3 14/9/7 15/22/18
f 31/34/29 11/21/17 30/20/16
f 15/22/18 11/21/17 13/23/19
f 17/1/1 2/3/3 15/22/18
f 17/1/1 22/25/21 18/4/4
f 4/6/5 18/5/4 19/27/22
f 20/15/13 7/17/11 21/29/24
f 22/26/21 20/15/13 19/27/22
f 26/32/27 23/11/9 21/29/24
f 24/28/23 23/11/9 4/6/5
f 27/31/26 23/11/9 26/32/27
f 25/30/25 26/32/27 28/33/28
f 29/36/31 28/33/28 9/12/10
f 30/20/16 28/33/28 29/36/31
f 25/30/25 3/8/6 27/31/26
f 14/9/7 3/8/6 30/20/16
f 9/12/10 31/34/29 29/36/31
f 29/36/31 31/34/29 30/20/16
