# Blender v2.79 (sub 0) OBJ File: ''
# www.blender.org
v -10.000000 -10.000000 0.000000
v -6.966431 -6.966431 12.333332
v -10.000000 10.000000 0.000000
v -6.966431 6.966431 12.333332
v 10.000000 -10.000000 0.000000
v 10.000000 10.000000 0.000000
v 6.966431 6.966431 12.333332
v 3.333333 10.000000 0.000000
v -3.333333 10.000000 0.000000
v -3.333333 -10.000000 0.000000
v 3.333333 -10.000000 0.000000
v 6.966431 -6.966431 12.333332
v 10.000000 -10.000000 12.333332
v 3.333333 -10.000000 9.401548
v -3.333333 -10.000000 9.401548
v -3.333333 10.000000 9.401548
v 3.333333 10.000000 9.401548
v -3.333333 -12.379302 0.000000
v 3.333333 -12.379302 0.000000
v 3.333333 -12.379302 9.401548
v -3.333333 -12.379302 9.401548
v -10.000000 -10.000000 12.333332
v -10.000000 10.000000 12.333332
v 10.000000 10.000000 12.333332
v -6.966431 -6.966431 19.942936
v -6.966431 6.966431 19.942936
v 6.966431 6.966431 19.942936
v 6.966431 -6.966431 19.942936
vt -1.567159 0.699677
vt 0.747983 7.645103
vt 0.747983 0.699677
vt -3.986400 0.583921
vt 0.852082 -2.058677
vt 0.852082 0.583921
vt -1.798673 0.699677
vt 0.516469 7.645103
vt 0.516469 0.699677
vt -2.030187 0.699677
vt 0.284955 7.645103
vt 0.284955 0.699677
vt 0.747983 0.907503
vt 5.378268 -0.110622
vt 3.063126 0.907503
vt 0.284955 0.907503
vt -4.345328 -0.110622
vt -2.030187 0.907503
vt 0.284955 -2.565210
vt -1.798673 -2.565210
vt 0.516469 4.172389
vt 1.342732 0.907503
vt 0.516469 0.907503
vt 0.516469 0.699677
vt 2.831612 -2.565210
vt 2.831612 0.699677
vt 0.284955 -2.565210
vt 2.600097 0.699677
vt 0.284955 0.699677
vt 0.516469 -3.583335
vt 7.461894 0.699677
vt 0.516469 0.699677
vt 0.747983 -2.565210
vt 0.516469 -3.583335
vt -6.428957 0.699677
vt 0.516469 0.699677
vt 0.747983 -2.565210
vt 3.063126 0.699677
vt 0.747983 0.699677
vt -2.030187 0.699677
vt 0.284955 1.525941
vt 0.516469 -2.565210
vt 1.342732 0.699677
vt 0.516469 0.699677
vt 3.063126 0.699677
vt 0.747983 1.525941
vt 0.747983 0.699677
vt 0.852082 -3.803192
vt 1.905555 2.088762
vt 0.852082 1.035291
vt 0.180856 5.202546
vt -0.872616 -0.689408
vt 0.180856 0.364063
vt -3.986400 0.364063
vt 1.905555 -0.689408
vt 0.852082 0.364063
vt 5.019339 1.035291
vt -0.872616 2.088762
vt 0.180856 1.035291
vt 5.019339 0.364063
vt 0.180856 5.202546
vt 0.180856 0.364063
vt 5.019339 0.583921
vt 0.180856 -2.058677
vt 0.180856 0.583921
vt 5.019339 0.583921
vt 0.180856 -2.058677
vt 0.180856 0.583921
vt -3.986400 0.583921
vt 0.852082 -2.058677
vt 0.852082 0.583921
vt -1.567159 7.645103
vt -3.986400 -2.058677
vt -1.798673 7.645103
vt -2.030187 7.645103
vt -1.567159 -0.110622
vt 2.600097 -0.110622
vt -2.030187 -2.565210
vt 0.516469 -3.583335
vt 1.342732 4.172389
vt 0.516469 -3.583335
vt 2.600097 -3.583335
vt 7.461894 -3.583335
vt -1.567159 -3.583335
vt -6.428957 -3.583335
vt 3.063126 -2.565210
vt -2.030187 1.525941
vt 1.342732 -2.565210
vt 3.063126 1.525941
vt 1.905555 -4.856662
vt -0.872616 6.256018
vt -5.039872 -0.689408
vt 6.072811 2.088762
vt 5.019339 5.202546
vt 5.019339 -2.058677
vt 5.019339 -2.058677
vt -3.986400 -2.058677
vn 0.0000 0.0000 -1.0000
vn 1.0000 0.0000 0.0000
vn 0.0000 -1.0000 0.0000
vn 0.0000 1.0000 0.0000
vn -1.0000 0.0000 -0.0000
vn 0.0000 0.0000 1.0000
s off
f 6/1/1 11/2/1 8/3/1
f 7/4/2 28/5/2 12/6/2
f 9/7/1 1/8/1 3/9/1
f 8/10/1 10/11/1 9/12/1
f 14/13/3 22/14/3 15/15/3
f 16/16/4 24/17/4 17/18/4
f 16/19/4 8/10/4 9/12/4
f 3/9/4 16/20/4 9/7/4
f 10/21/5 21/22/5 15/23/5
f 5/24/3 14/25/3 11/26/3
f 15/27/3 1/28/3 10/29/3
f 24/30/2 5/31/2 6/32/2
f 17/33/4 6/1/4 8/3/4
f 22/34/5 3/35/5 1/36/5
f 20/37/3 18/38/3 19/39/3
f 11/40/1 18/41/1 10/29/1
f 14/42/2 19/43/2 11/44/2
f 15/45/6 20/46/6 14/47/6
f 4/48/6 22/49/6 2/50/6
f 12/51/6 24/52/6 7/53/6
f 7/54/6 23/55/6 4/56/6
f 2/57/6 13/58/6 12/59/6
f 26/60/6 28/61/6 27/62/6
f 4/63/4 27/64/4 7/65/4
f 2/66/5 26/67/5 4/68/5
f 12/69/3 25/70/3 2/71/3
f 6/1/1 5/72/1 11/2/1
f 7/4/2 27/73/2 28/5/2
f 9/7/1 10/74/1 1/8/1
f 8/10/1 11/75/1 10/11/1
f 14/13/3 13/76/3 22/14/3
f 16/16/4 23/77/4 24/17/4
f 16/19/4 17/78/4 8/10/4
f 3/9/4 23/79/4 16/20/4
f 10/21/5 18/80/5 21/22/5
f 5/24/3 13/81/3 14/25/3
f 15/27/3 22/82/3 1/28/3
f 24/30/2 13/83/2 5/31/2
f 17/33/4 24/84/4 6/1/4
f 22/34/5 23/85/5 3/35/5
f 20/37/3 21/86/3 18/38/3
f 11/40/1 19/87/1 18/41/1
f 14/42/2 20/88/2 19/43/2
f 15/45/6 21/89/6 20/46/6
f 4/48/6 23/90/6 22/49/6
f 12/51/6 13/91/6 24/52/6
f 7/54/6 24/92/6 23/55/6
f 2/57/6 22/93/6 13/58/6
f 26/60/6 25/94/6 28/61/6
f 4/63/4 26/95/4 27/64/4
f 2/66/5 25/96/5 26/67/5
f 12/69/3 28/97/3 25/70/3
